<mxfile host="app.diagrams.net" modified="2023-09-22T11:04:48.955Z" agent="Mozilla/5.0 (Macintosh; Intel Mac OS X 10_15_7) AppleWebKit/537.36 (KHTML, like Gecko) Chrome/117.0.0.0 Safari/537.36" etag="lIdLzB05aKIkJ21r14h3" version="21.7.5" type="github">
  <diagram name="Page-1" id="BGFtHfEbgFWgrMU9bULs">
    <mxGraphModel dx="823" dy="552" grid="1" gridSize="10" guides="1" tooltips="1" connect="1" arrows="1" fold="1" page="1" pageScale="1" pageWidth="827" pageHeight="1169" math="0" shadow="0">
      <root>
        <mxCell id="0" />
        <mxCell id="1" parent="0" />
        <mxCell id="Ef29BQfF2o6deWfOy0Zc-3" value="" style="edgeStyle=orthogonalEdgeStyle;rounded=0;orthogonalLoop=1;jettySize=auto;html=1;flowAnimation=1;fillColor=#f8cecc;strokeColor=#b85450;exitX=1;exitY=0.5;exitDx=0;exitDy=0;" edge="1" parent="1" source="Ef29BQfF2o6deWfOy0Zc-4" target="Ef29BQfF2o6deWfOy0Zc-2">
          <mxGeometry relative="1" as="geometry">
            <mxPoint x="380" y="265" as="sourcePoint" />
          </mxGeometry>
        </mxCell>
        <mxCell id="Ef29BQfF2o6deWfOy0Zc-2" value="" style="whiteSpace=wrap;html=1;rounded=0;" vertex="1" parent="1">
          <mxGeometry x="550" y="235" width="140" height="65" as="geometry" />
        </mxCell>
        <mxCell id="Ef29BQfF2o6deWfOy0Zc-4" value="" style="rounded=1;whiteSpace=wrap;html=1;" vertex="1" parent="1">
          <mxGeometry x="240" y="237.5" width="120" height="60" as="geometry" />
        </mxCell>
      </root>
    </mxGraphModel>
  </diagram>
</mxfile>
